<svg width="41" height="30" viewBox="0 0 41 30" fill="none" xmlns="http://www.w3.org/2000/svg">
<path d="M23.5759 0H2.14327C0.964471 0 0 0.96447 0 2.14327C0 3.32206 0.964471 4.28654 2.14327 4.28654H23.5759C24.7547 4.28654 25.7192 3.32206 25.7192 2.14327C25.7192 0.96447 24.7547 0 23.5759 0ZM23.5759 8.57307H2.14327C0.964471 8.57307 0 9.53754 0 10.7163C0 11.8951 0.964471 12.8596 2.14327 12.8596H23.5759C24.7547 12.8596 25.7192 11.8951 25.7192 10.7163C25.7192 9.53754 24.7547 8.57307 23.5759 8.57307ZM2.14327 21.4327H15.0029C16.1817 21.4327 17.1461 20.4682 17.1461 19.2894C17.1461 18.1106 16.1817 17.1461 15.0029 17.1461H2.14327C0.964471 17.1461 0 18.1106 0 19.2894C0 20.4682 0.964471 21.4327 2.14327 21.4327ZM34.2923 0C31.9347 0 30.0058 1.92894 30.0058 4.28654V17.5319C29.3413 17.2962 28.6126 17.1461 27.8625 17.1461C23.9189 17.1461 20.8326 20.6611 21.5398 24.7333C21.9899 27.3267 24.1118 29.4485 26.7051 29.8986C30.7773 30.6059 34.2923 27.5196 34.2923 23.5759V4.28654H38.5788C39.7576 4.28654 40.7221 3.32206 40.7221 2.14327C40.7221 0.96447 39.7576 0 38.5788 0H34.2923Z" fill="#A38DA1"/>
</svg>
