<svg width="30" height="29" viewBox="0 0 30 29" xmlns="http://www.w3.org/2000/svg">
<path d="M19.998 0.658203V5.65625H7.5C3.35742 5.65625 0 9.01367 0 13.1563C0 14.416 0.339844 15.582 0.890625 16.625L3.98438 14.4219C3.84375 14.0234 3.75 13.6074 3.75 13.1621C3.75 11.0879 5.43164 9.41211 7.5 9.41211H19.998V14.4102L30 8.1582V6.91016L19.998 0.658203ZM26.0156 14.3984C26.1563 14.7969 26.25 15.2129 26.25 15.6582C26.25 17.7324 24.5742 19.4082 22.5 19.4082H10.002V14.4102L0 20.6621V21.9102L10.002 28.1621V23.1641H22.5C26.6426 23.1641 30 19.8066 30 15.6641C30 14.4043 29.6602 13.2383 29.1094 12.1953L26.0156 14.3984Z" fill="currentColor"/>
</svg>
