<svg width="38" height="39" viewBox="0 0 38 39" fill="none" xmlns="http://www.w3.org/2000/svg">
<path d="M34.8037 0.304321C33.1063 0.304321 31.7175 1.75214 31.7175 3.5217V35.6955C31.7175 37.465 33.1063 38.9129 34.8037 38.9129C36.501 38.9129 37.8898 37.465 37.8898 35.6955V3.5217C37.8898 1.75214 36.501 0.304321 34.8037 0.304321ZM23.5085 22.2468L5.70163 35.3416C3.66479 36.8537 0.82557 35.3094 0.82557 32.7033V6.51386C0.82557 3.90778 3.63393 2.39562 5.70163 3.87561L23.5085 16.9703C23.9159 17.2668 24.2487 17.6615 24.4785 18.1209C24.7082 18.5802 24.8282 19.0906 24.8282 19.6086C24.8282 20.1266 24.7082 20.637 24.4785 21.0963C24.2487 21.5556 23.9159 21.9503 23.5085 22.2468Z" fill="#4A1F46"/>
</svg>
