<svg width="28" height="31" viewBox="0 0 28 31" fill="none" xmlns="http://www.w3.org/2000/svg">
<path d="M5.16667 0C6.53695 0 7.85111 0.544344 8.82005 1.51328C9.78899 2.48222 10.3333 3.79638 10.3333 5.16667V25.8333C10.3333 27.2036 9.78899 28.5178 8.82005 29.4867C7.85111 30.4557 6.53695 31 5.16667 31C3.79638 31 2.48222 30.4557 1.51328 29.4867C0.544343 28.5178 2.88766e-08 27.2036 0 25.8333V5.16667C0 3.79638 0.544343 2.48222 1.51328 1.51328C2.48222 0.544344 3.79638 0 5.16667 0V0ZM22.3889 0C23.7592 0 25.0733 0.544344 26.0423 1.51328C27.0112 2.48222 27.5556 3.79638 27.5556 5.16667V25.8333C27.5556 27.2036 27.0112 28.5178 26.0423 29.4867C25.0733 30.4557 23.7592 31 22.3889 31C21.0186 31 19.7044 30.4557 18.7355 29.4867C17.7666 28.5178 17.2222 27.2036 17.2222 25.8333V5.16667C17.2222 3.79638 17.7666 2.48222 18.7355 1.51328C19.7044 0.544344 21.0186 0 22.3889 0Z" fill="#F0F2F7"/>
</svg>
