<svg width="39" height="39" viewBox="0 0 39 39" fill="none" xmlns="http://www.w3.org/2000/svg">
<path d="M3.2147 0.304321C4.98278 0.304321 6.4294 1.75214 6.4294 3.5217V35.6955C6.4294 37.465 4.98278 38.9129 3.2147 38.9129C1.44661 38.9129 0 37.465 0 35.6955V3.5217C0 1.75214 1.44661 0.304321 3.2147 0.304321ZM14.9805 22.2468L33.5293 35.3416C35.651 36.8537 38.6085 35.3094 38.6085 32.7033V6.51386C38.6085 3.90778 35.6832 2.39562 33.5293 3.87561L14.9805 16.9703C14.5561 17.2668 14.2094 17.6615 13.9701 18.1209C13.7308 18.5802 13.6058 19.0906 13.6058 19.6086C13.6058 20.1266 13.7308 20.637 13.9701 21.0963C14.2094 21.5556 14.5561 21.9503 14.9805 22.2468Z" fill="#4A1F46"/>
</svg>
