<svg width="34" height="30" viewBox="0 0 34 30" fill="none" xmlns="http://www.w3.org/2000/svg">
<path d="M12.4828 8.41875C11.7331 9.56875 10.8772 11.275 9.91504 13.5375C9.64015 12.975 9.40898 12.5219 9.22155 12.1781C9.03412 11.8344 8.78109 11.4375 8.46246 10.9875C8.14383 10.5375 7.8252 10.1844 7.50657 9.92813C7.18794 9.67188 6.79433 9.45313 6.32576 9.27188C5.85718 9.09063 5.348 9 4.79821 9H0.599776C0.424841 9 0.281145 8.94375 0.168687 8.83125C0.056229 8.71875 0 8.575 0 8.4V4.8C0 4.625 0.056229 4.48125 0.168687 4.36875C0.281145 4.25625 0.424841 4.2 0.599776 4.2H4.79821C7.92204 4.2 10.4836 5.60625 12.4828 8.41875ZM33.5874 23.4C33.5874 23.575 33.5312 23.7188 33.4188 23.8313L27.421 29.8313C27.3085 29.9438 27.1648 30 26.9899 30C26.8275 30 26.6869 29.9406 26.5682 29.8219C26.4495 29.7031 26.3901 29.5625 26.3901 29.4V25.8C25.9903 25.8 25.4592 25.8031 24.797 25.8094C24.1347 25.8156 23.6287 25.8219 23.2788 25.8281C22.9289 25.8344 22.4728 25.8281 21.9106 25.8094C21.3483 25.7906 20.9047 25.7594 20.5798 25.7156C20.2549 25.6719 19.8551 25.6063 19.3803 25.5188C18.9054 25.4313 18.5118 25.3156 18.1994 25.1719C17.8871 25.0281 17.5247 24.85 17.1124 24.6375C16.7 24.425 16.3314 24.175 16.0065 23.8875C15.6816 23.6 15.338 23.2656 14.9757 22.8844C14.6133 22.5031 14.2634 22.0688 13.926 21.5813C14.6633 20.4188 15.5129 18.7125 16.4751 16.4625C16.75 17.025 16.9812 17.4781 17.1686 17.8219C17.356 18.1656 17.609 18.5625 17.9277 19.0125C18.2463 19.4625 18.5649 19.8156 18.8836 20.0719C19.2022 20.3281 19.5958 20.5469 20.0644 20.7281C20.5329 20.9094 21.0421 21 21.5919 21H26.3901V17.4C26.3901 17.225 26.4464 17.0813 26.5588 16.9688C26.6713 16.8563 26.815 16.8 26.9899 16.8C27.1399 16.8 27.2898 16.8625 27.4397 16.9875L33.4188 22.9688C33.5312 23.0813 33.5874 23.225 33.5874 23.4ZM33.5874 6.6C33.5874 6.775 33.5312 6.91875 33.4188 7.03125L27.421 13.0313C27.3085 13.1438 27.1648 13.2 26.9899 13.2C26.8275 13.2 26.6869 13.1406 26.5682 13.0219C26.4495 12.9031 26.3901 12.7625 26.3901 12.6V9H21.5919C20.9922 9 20.4486 9.09375 19.9613 9.28125C19.474 9.46875 19.0429 9.75 18.668 10.125C18.2932 10.5 17.9745 10.8844 17.7121 11.2781C17.4497 11.6719 17.1686 12.1563 16.8687 12.7313C16.4688 13.5063 15.9815 14.575 15.4067 15.9375C15.0444 16.7625 14.7351 17.4563 14.479 18.0188C14.2228 18.5813 13.8854 19.2375 13.4668 19.9875C13.0482 20.7375 12.6484 21.3625 12.2673 21.8625C11.8862 22.3625 11.4239 22.8813 10.8803 23.4188C10.3368 23.9563 9.77447 24.3844 9.19344 24.7031C8.6124 25.0219 7.94703 25.2844 7.19731 25.4906C6.44759 25.6969 5.64789 25.8 4.79821 25.8H0.599776C0.424841 25.8 0.281145 25.7438 0.168687 25.6313C0.056229 25.5188 0 25.375 0 25.2V21.6C0 21.425 0.056229 21.2813 0.168687 21.1688C0.281145 21.0563 0.424841 21 0.599776 21H4.79821C5.39798 21 5.94153 20.9063 6.42885 20.7188C6.91616 20.5313 7.34725 20.25 7.72211 19.875C8.09697 19.5 8.4156 19.1156 8.67801 18.7219C8.94041 18.3281 9.22155 17.8438 9.52144 17.2688C9.92129 16.4938 10.4086 15.425 10.9834 14.0625C11.3458 13.2375 11.655 12.5438 11.9112 11.9813C12.1673 11.4188 12.5047 10.7625 12.9233 10.0125C13.3419 9.2625 13.7417 8.6375 14.1228 8.1375C14.504 7.6375 14.9663 7.11875 15.5098 6.58125C16.0534 6.04375 16.6157 5.61563 17.1967 5.29688C17.7777 4.97813 18.4431 4.71563 19.1928 4.50938C19.9425 4.30313 20.7422 4.2 21.5919 4.2H26.3901V0.6C26.3901 0.425 26.4464 0.28125 26.5588 0.16875C26.6713 0.05625 26.815 0 26.9899 0C27.1399 0 27.2898 0.0625 27.4397 0.1875L33.4188 6.16875C33.5312 6.28125 33.5874 6.425 33.5874 6.6Z" fill="#A38DA1"/>
</svg>
