<svg width="30" height="28" viewBox="0 0 30 28" fill="none" xmlns="http://www.w3.org/2000/svg">
<path d="M21.001 25.4642C21.001 26.5065 22.0732 27.1942 22.9569 26.6414C27.1832 23.998 30 19.4198 30 14C30 8.58013 27.1832 4.00202 22.9569 1.35856C22.0732 0.805819 21.001 1.49348 21.001 2.53583V2.53583C21.001 3.04618 21.2752 3.51279 21.6955 3.80228C24.8908 6.00301 26.9999 9.80794 26.9999 14C26.9999 18.192 24.8908 21.997 21.6955 24.1977C21.2752 24.4872 21.001 24.9538 21.001 25.4642V25.4642Z" fill="#A38DA1"/>
<path d="M23.3373 10.2212C22.7716 8.57925 21.0011 9.18685 21.0011 10.9236V17.0764C21.0011 18.8131 22.7716 19.4207 23.3373 17.7788C23.765 16.5373 24.0012 15.2134 24.0012 14C24.0012 12.7866 23.765 11.4627 23.3373 10.2212ZM3.00015 21.6003H6.43368C6.83266 21.6003 7.22252 21.7197 7.55315 21.943L14.8814 26.8929C16.2097 27.7901 18.0009 26.8385 18.0009 25.2356V2.76441C18.0009 1.16153 16.2097 0.20988 14.8814 1.10707L7.55315 6.05702C7.22252 6.28034 6.83266 6.39968 6.43368 6.39968H3.00015C1.34557 6.39968 0 7.76317 0 9.43981V18.5602C0 20.2368 1.34557 21.6003 3.00015 21.6003Z" fill="#A38DA1"/>
</svg>
