<svg width="20" height="18" viewBox="0 0 20 18" fill="none" xmlns="http://www.w3.org/2000/svg">
<path d="M14.0007 16.6428C14.0007 17.3377 14.7154 17.7961 15.3046 17.4276C18.1221 15.6653 20 12.6132 20 8.99999C20 5.38675 18.1221 2.33468 15.3046 0.572375C14.7154 0.20388 14.0007 0.662321 14.0007 1.35722V1.35722C14.0007 1.69746 14.1834 2.00853 14.4637 2.20152C16.5939 3.66867 17.9999 6.20529 17.9999 8.99999C17.9999 11.7947 16.5939 14.3313 14.4637 15.7985C14.1834 15.9915 14.0007 16.3025 14.0007 16.6428V16.6428Z" fill="#F0F2F7"/>
<path d="M15.9185 7.94313C15.6594 6.22584 14.0007 6.72029 14.0007 8.45701V9.54299C14.0007 11.2797 15.6594 11.7742 15.9185 10.0569C15.9726 9.69788 16.0008 9.34234 16.0008 9C16.0008 8.65766 15.9726 8.30212 15.9185 7.94313ZM2.0001 14.0669H4.08506C4.48404 14.0669 4.8739 14.1862 5.20453 14.4095L8.88113 16.8929C10.2094 17.7901 12.0006 16.8385 12.0006 15.2356V2.76441C12.0006 1.16153 10.2094 0.209879 8.88114 1.10707L5.20453 3.59046C4.8739 3.81378 4.48404 3.93312 4.08506 3.93312H2.0001C0.897045 3.93312 0 4.84212 0 5.95987V12.0401C0 13.1579 0.897045 14.0669 2.0001 14.0669Z" fill="#F0F2F7"/>
</svg>
